<svg xmlns="http://www.w3.org/2000/svg" height="400pt" viewBox="-19 0 400 400" width="400pt"><path d="m40 110.9375c0-14.773438 11.976562-26.75 26.753906-26.75h10.34375l-21.113281-30h-19.230469c-14.777344 0-26.753906 11.976562-26.753906 26.75v282.308594c0 14.777344 11.976562 26.753906 26.753906 26.753906h3.246094zm0 0" fill="#ffffff"></path><path d="m84.1875 66.753906c0-14.777344 11.976562-26.753906 26.75-26.753906h152.75l1.890625.1875-30-30-1.890625-.1875h-152.75c-14.773438 0-26.75 11.976562-26.75 26.75v282.3125c0 14.773438 11.976562 26.75 26.75 26.75h3.25zm0 0" fill="#ffffff"></path><path d="m237.378906 400h-200.625c-20.289062-.023438-36.7304685-16.464844-36.753906-36.75v-282.3125c.0234375-20.289062 16.464844-36.726562 36.753906-36.75h19.230469c5.523437 0 10 4.476562 10 10 0 5.519531-4.476563 10-10 10h-19.230469c-9.25.007812-16.742187 7.503906-16.753906 16.75v282.3125c.011719 9.246094 7.503906 16.738281 16.753906 16.75h200.625c9.246094-.011719 16.738282-7.503906 16.75-16.75v-13.285156c0-5.523438 4.476563-10 10-10 5.523438 0 10 4.476562 10 10v13.285156c-.023437 20.285156-16.464844 36.726562-36.75 36.75zm0 0" fill="#ffffff"></path><g fill="#ffffff"><path d="m295.445312 147.886719c-3.597656-4.1875-9.910156-4.667969-14.101562-1.066407-4.1875 3.597657-4.664062 9.914063-1.066406 14.101563l.121094.136719 38.84375 44.367187c2.332031 2.746094 5.957031 4.023438 9.496093 3.347657 3.535157-.675782 6.4375-3.203126 7.59375-6.613282s.386719-7.179687-2.007812-9.867187l-.039063-.039063zm0 0"></path><path d="m307.921875 205.210938c-5.523437 0-10 4.476562-10 10v103.851562c0 9.238281-7.121094 16.9375-16.359375 16.9375h-200.625c-9.335938-.078125-16.894531-7.601562-17.015625-16.9375v-282.3125c.136719-9.296875 7.71875-16.757812 17.015625-16.75h143.984375v62.925781c0 5.523438 4.945313 10.074219 10.46875 10.074219h62.53125v44.601562c0 5.519532 4.476563 10 10 10s10-4.480468 10-10v-54.863281c.074219-2.632812-.914063-5.183593-2.738281-7.082031l-72.640625-72.546875c-.03125-.03125-.015625-.058594-.046875-.089844-1.871094-1.929687-4.441406-3.019531-7.132813-3.019531-.28125 0-.550781.0195312-.828125.0429688-.285156-.0234376-.5625-.0429688-.847656-.0429688h-152.75c-20.339844 0-36.867188 16.414062-37.015625 36.75v282.3125c.132813 20.375 16.640625 36.847656 37.015625 36.9375h200.625c20.265625 0 36.359375-16.671875 36.359375-36.9375v-103.851562c0-5.523438-4.476563-10-10-10zm-63-171.109376 39.402344 38.898438h-39.402344zm0 0"></path><path d="m105.53125 127h70.769531c5.519531 0 10-4.476562 10-10s-4.480469-10-10-10h-70.769531c-5.519531 0-10 4.476562-10 10s4.480469 10 10 10zm0 0"></path><path d="m105.53125 184h111.757812c5.523438 0 10-4.476562 10-10s-4.476562-10-10-10h-111.757812c-5.519531 0-10 4.476562-10 10s4.480469 10 10 10zm0 0"></path></g><path d="m186.316406 292.460938c-3.015625 0-5.871094-1.363282-7.769531-3.703126-1.898437-2.34375-2.636719-5.414062-2.015625-8.363281l9.960938-47.15625c.445312-2.109375 1.5625-4.019531 3.183593-5.441406l107.078125-94.144531c15.785156-13.875 39.835938-12.328125 53.710938 3.457031l.050781.058594 1.90625 2.175781c13.769531 15.789062 12.222656 39.730469-3.464844 53.613281l-56.457031 49.773438-50.792969 44.46875c-1.675781 1.46875-3.792969 2.335937-6.015625 2.460937l-48.800781 2.785156c-.195313.007813-.386719.015626-.574219.015626zm19.058594-51.839844-6.570312 31.109375 32.3125-1.84375 49.285156-43.148438 55.328125-48.78125c7.445312-6.585937 8.179687-17.949219 1.644531-25.4375l-1.90625-2.179687c-6.570312-7.5-17.976562-8.257813-25.480469-1.691406l-.027343.027343zm0 0" fill="#ffffff"></path></svg>