<svg xmlns="http://www.w3.org/2000/svg" id="Capa_1" height="512" viewBox="0 0 512 512" width="512"><g><g><g><path d="m464.689 464.341h-46.263c-6.075 0-11-4.925-11-11s4.925-11 11-11h35.263v-420.341h-296.373v35.8c0 6.075-4.925 11-11 11s-11-4.925-11-11v-46.8c0-6.075 4.925-11 11-11h318.373c6.075 0 11 4.925 11 11v442.341c0 6.076-4.925 11-11 11z" fill="#fff"></path></g><g><path d="m417.194 512h-318.372c-6.075 0-11-4.925-11-11v-28.924c0-6.075 4.925-11 11-11s11 4.925 11 11v17.924h296.373v-420.341h-296.373v257.358c0 6.075-4.925 11-11 11s-11-4.925-11-11v-268.358c0-6.075 4.925-11 11-11h318.373c6.075 0 11 4.925 11 11v442.341c-.001 6.075-4.925 11-11.001 11z" fill="#ffffff"></path></g><g><g><path d="m258.008 326.104c-65.515 0-118.815-53.3-118.815-118.815s53.3-118.815 118.815-118.815 118.815 53.3 118.815 118.815-53.3 118.815-118.815 118.815zm0-215.63c-53.384 0-96.815 43.431-96.815 96.815s43.431 96.815 96.815 96.815 96.815-43.431 96.815-96.815-43.431-96.815-96.815-96.815z" fill="#fff"></path></g><g><g><path d="m287.901 206.34c6.94-7.36 11.2-17.28 11.2-28.18 0-22.67-18.43-41.12-41.09-41.12s-41.1 18.45-41.1 41.12c0 10.9 4.26 20.82 11.2 28.18-14.5 9.69-24.06 26.2-24.06 44.91v.67c0 6.07 4.92 11 11 11h85.92c6.07 0 11-4.93 11-11v-.67c0-18.71-9.57-35.23-24.07-44.91zm-48.99-28.18c0-10.54 8.57-19.12 19.1-19.12s19.09 8.58 19.09 19.12c0 10.55-8.56 19.12-19.09 19.12s-19.1-8.57-19.1-19.12zm-11.15 62.76c4.3-12.57 16.24-21.64 30.25-21.64s25.94 9.07 30.25 21.64z" fill="#ffffff"></path></g></g></g><g><path d="m366.84 363.928h-186.001c-6.075 0-11-4.925-11-11s4.925-11 11-11h186.001c6.075 0 11 4.925 11 11s-4.924 11-11 11z" fill="#ffffff"></path></g><g><path d="m266.308 459.096h-85.469c-6.075 0-11-4.925-11-11s4.925-11 11-11h85.469c6.075 0 11 4.925 11 11s-4.925 11-11 11z" fill="#ffffff"></path></g></g><g><g><path d="m366.841 389.51h-164.19c-5.4-40.88-40.48-72.53-82.81-72.53-46.06 0-83.53 37.47-83.53 83.53s37.47 83.53 83.53 83.53c42.33 0 77.41-31.65 82.81-72.53h164.19c6.07 0 11-4.92 11-11 0-6.07-4.93-11-11-11zm-247 72.53c-33.93 0-61.53-27.6-61.53-61.53s27.6-61.53 61.53-61.53 61.53 27.6 61.53 61.53-27.6 61.53-61.53 61.53z" fill="#fff"></path></g><g><path d="m119.836 427.473c-2.322 0-4.661-.732-6.646-2.24l-17.711-13.448c-4.838-3.674-5.783-10.574-2.109-15.413 3.674-4.838 10.575-5.783 15.413-2.109l9.304 7.064 15.5-18.758c3.869-4.683 10.803-5.343 15.486-1.473s5.343 10.803 1.473 15.486l-22.224 26.896c-2.17 2.627-5.313 3.995-8.486 3.995z" fill="#ffffff"></path></g></g></g></svg>